<svg width="97" height="98" viewBox="0 0 97 98" fill="none" xmlns="http://www.w3.org/2000/svg">
<g clip-path="url(#clip0_41_1422)">
<path d="M70.0862 64.3036L70.0126 60.1347C70.0113 60.0301 69.9871 59.927 69.9417 59.8328C69.8962 59.7385 69.8306 59.6554 69.7495 59.5893L64.2576 55.0888L64.1398 48.3391L78.2091 51.0727C78.3145 51.0935 78.4233 51.0905 78.5274 51.0638C78.6316 51.0371 78.7284 50.9875 78.8109 50.9185C78.8933 50.8496 78.9593 50.763 79.004 50.6653C79.0487 50.5675 79.0709 50.461 79.0691 50.3535L78.9821 45.2229C78.9794 45.0969 78.9439 44.9737 78.8791 44.8655C78.8143 44.7573 78.7224 44.6679 78.6125 44.6061L76.9965 43.7078C76.9979 43.6913 76.9984 43.6747 76.9981 43.6581L76.8836 37.0009C76.8741 36.4553 76.6523 35.5739 76.345 34.8566C75.8681 33.7337 75.2671 33.1765 74.5379 33.1893C73.8373 33.2015 73.2628 33.7792 72.8194 34.9173C72.5406 35.6415 72.3473 36.5343 72.3569 37.08L72.4278 41.1419L70.4391 40.0294L70.3246 33.4237C70.3151 32.878 70.0942 31.9958 69.7868 31.2785C69.3107 30.1565 68.7089 29.5984 67.978 29.6112C67.2783 29.6242 66.7038 30.202 66.2604 31.34C65.9816 32.0642 65.7883 32.9571 65.7978 33.5027L65.8638 37.4721L63.9295 36.389L63.882 33.5715C63.8799 33.4497 63.847 33.3304 63.7863 33.2247C63.7257 33.119 63.6394 33.0303 63.5354 32.9669L58.9723 30.1946L58.8344 22.1952C58.7618 18.4026 57.8727 14.6702 56.2277 11.2522L53.7125 6.03521C53.6535 5.90907 53.5593 5.80271 53.4411 5.72901C53.323 5.65532 53.186 5.61744 53.0467 5.61996C52.9075 5.62248 52.772 5.66529 52.6566 5.74321C52.5412 5.82113 52.4508 5.93083 52.3964 6.05903L50.0623 11.3565C48.5379 14.831 47.7808 18.5934 47.8425 22.3871L47.9821 30.3881L43.5186 33.318C43.4163 33.3844 43.3327 33.4759 43.2757 33.5838C43.2188 33.6917 43.1904 33.8124 43.1933 33.9343L43.2433 36.7492L41.3471 37.8983L41.2796 33.9307C41.2692 33.3842 41.0491 32.5028 40.7409 31.7847C40.2648 30.6626 39.6647 30.1045 38.9338 30.1173C38.2341 30.1304 37.6596 30.7081 37.2153 31.8453C36.9374 32.5704 36.7424 33.4632 36.7528 34.008L36.8681 40.6146L34.9203 41.7966L34.8485 37.7338C34.8399 37.189 34.6181 36.306 34.3108 35.5886C33.8305 34.4709 33.2337 33.9094 32.5028 33.9221C30.956 33.95 30.307 36.9161 30.3218 37.8128L30.4387 44.4624L30.4413 44.5128L28.8576 45.467C28.7494 45.532 28.6605 45.6245 28.5997 45.735C28.5389 45.8456 28.5084 45.9702 28.5114 46.0963L28.601 51.2277C28.6021 51.3225 28.6221 51.4161 28.6598 51.503C28.6975 51.59 28.7521 51.6686 28.8204 51.7343L28.8752 51.7872C28.9597 51.8536 29.0581 51.9001 29.1631 51.9232C29.2681 51.9463 29.3769 51.9455 29.4815 51.9207L43.4468 48.6977L43.5646 55.4475L38.2415 60.1367C38.2274 60.1513 38.2134 60.1659 38.2001 60.1796C38.0675 60.3174 37.995 60.5023 37.9985 60.6935L38.0705 64.8624C38.0716 64.9574 38.0917 65.0512 38.1295 65.1383C38.1673 65.2255 38.2221 65.3042 38.2907 65.3699C38.3104 65.3889 38.3319 65.4096 38.3516 65.4286C38.4387 65.4946 38.5396 65.5401 38.6467 65.5615C38.7539 65.583 38.8645 65.5799 38.9703 65.5526L50.8097 62.4788L57.2681 62.366L69.2076 65.0248C69.3143 65.0484 69.425 65.0476 69.5313 65.0224C69.6377 64.9972 69.7369 64.9483 69.8216 64.8793C69.8425 64.8603 69.8621 64.84 69.8804 64.8185C69.9473 64.7507 69.9999 64.6702 70.0353 64.5818C70.0706 64.4934 70.0879 64.3988 70.0862 64.3036ZM73.8001 37.0548C73.7883 36.3811 74.2512 35.0069 74.5789 34.671C74.9216 35.0019 75.4261 36.3534 75.4387 37.0245L75.5401 42.8842L73.884 41.9571L73.8001 37.0548ZM67.2411 33.4775C67.2293 32.8039 67.6922 31.4296 68.019 31.0929C68.3617 31.4238 68.8679 32.7753 68.8797 33.4472L68.9803 39.2118L67.3233 38.2838L67.2411 33.4775ZM77.5418 45.66L77.6086 49.4862L64.114 46.8638L63.9603 38.0562L77.5418 45.66ZM38.1927 33.9862C38.181 33.3126 38.6438 31.9383 38.9723 31.6016C39.315 31.9325 39.8195 33.284 39.8313 33.9559L39.9161 38.7648L38.2916 39.7491L38.1927 33.9862ZM31.7642 37.7885C31.7524 37.1149 32.2161 35.7414 32.543 35.4047C32.8857 35.7356 33.391 37.0863 33.4019 37.7574L33.4875 42.6614L31.8639 43.6466L31.7642 37.7885ZM30.0313 50.3158L29.9645 46.4913L43.2733 38.419L43.427 47.2249L30.0313 50.3158ZM58.1165 61.0726L57.9959 54.168C57.9977 54.0711 57.9799 53.9749 57.9436 53.885C57.9073 53.7952 57.8534 53.7136 57.7849 53.645C57.7164 53.5765 57.6348 53.5225 57.545 53.4861C57.4552 53.4498 57.359 53.4319 57.2621 53.4335C57.1653 53.4352 57.0697 53.4563 56.9812 53.4956C56.8927 53.535 56.813 53.5917 56.7468 53.6626C56.6807 53.7334 56.6295 53.8168 56.5963 53.9078C56.5631 53.9988 56.5485 54.0956 56.5535 54.1923L56.6711 60.9286L51.3571 61.0222L51.2395 54.2859C51.2384 54.1908 51.2184 54.0968 51.1809 54.0094C51.1433 53.9221 51.0888 53.843 51.0206 53.7767C50.9524 53.7104 50.8717 53.6583 50.7832 53.6233C50.6948 53.5883 50.6003 53.5712 50.5052 53.5728C50.4101 53.5745 50.3162 53.5949 50.2291 53.633C50.1419 53.671 50.0631 53.7259 49.9972 53.7946C49.9313 53.8632 49.8797 53.9441 49.8452 54.0328C49.8107 54.1214 49.794 54.216 49.7962 54.3111L49.9168 61.2158L39.4943 63.9212L39.4434 61.0027L44.7749 56.3133C44.789 56.2987 44.8022 56.285 44.8163 56.2704C44.949 56.1326 45.0215 55.9477 45.0179 55.7565L44.6451 34.3049L49.1087 31.375C49.2527 31.2796 49.3573 31.1354 49.4031 30.9689C49.4109 30.9377 49.4171 30.9061 49.4217 30.8742C49.4276 30.834 49.4297 30.7934 49.428 30.7528L49.2816 22.3662C49.2258 18.7804 49.9438 15.2247 51.3864 11.9415L53.0904 8.08357L54.928 11.8797C56.4814 15.1093 57.3209 18.6356 57.3894 22.2188L57.5358 30.6054C57.5354 30.6549 57.5405 30.7042 57.551 30.7525C57.5536 30.7688 57.5576 30.7848 57.5628 30.8003C57.6123 30.9744 57.7259 31.1233 57.8809 31.2168L62.4439 33.9891L62.8184 55.4458C62.8202 55.5505 62.8448 55.6536 62.8903 55.7479C62.9359 55.8422 63.0014 55.9255 63.0824 55.992L68.5743 60.4925L68.6252 63.411L58.1165 61.0726Z" fill="#DE4D86"/>
<path d="M55.7161 21.5615C55.6972 20.5244 55.4454 19.5049 54.9793 18.5783L54.4558 17.543C54.3429 17.3195 54.1693 17.1323 53.9549 17.0029C53.7404 16.8735 53.4939 16.8071 53.2435 16.8114C52.9931 16.8157 52.749 16.8904 52.5391 17.0271C52.3292 17.1637 52.1621 17.3568 52.0569 17.584L51.5691 18.6378C51.1362 19.5803 50.9201 20.6079 50.9368 21.6449L51.1551 34.2038C51.1606 34.5177 51.2279 34.8275 51.3531 35.1154C51.4783 35.4034 51.659 35.6638 51.8848 35.8819C52.1107 36.1 52.3773 36.2715 52.6694 36.3866C52.9615 36.5017 53.2735 36.5581 53.5874 36.5526C53.9013 36.5471 54.2111 36.4799 54.499 36.3547C54.787 36.2295 55.0474 36.0488 55.2655 35.8229C55.4836 35.5971 55.6551 35.3305 55.7702 35.0383C55.8853 34.7462 55.9417 34.4343 55.9362 34.1203L55.7161 21.5615ZM53.5614 35.1085C53.3105 35.1115 53.0686 35.0154 52.8882 34.8412C52.7078 34.6669 52.6033 34.4286 52.5975 34.1778L52.38 21.6197C52.3666 20.8001 52.5375 19.988 52.8801 19.2433L53.2705 18.3984L53.6902 19.2292C54.0585 19.9614 54.2577 20.7671 54.2729 21.5867L54.493 34.1455C54.4959 34.3964 54.3999 34.6382 54.2256 34.8187C54.0514 34.9991 53.813 35.1036 53.5622 35.1094L53.5614 35.1085Z" fill="#DE4D86"/>
</g>
<defs>
<clipPath id="clip0_41_1422">
<rect width="60.9789" height="76.2236" fill="white" transform="translate(52.9492) rotate(44)"/>
</clipPath>
</defs>
</svg>
