<svg width="97" height="98" viewBox="0 0 97 98" fill="none" xmlns="http://www.w3.org/2000/svg">
<g clip-path="url(#clip0_22_2163)">
<path d="M40.1877 76.4884C40.3115 76.3646 40.4829 76.2884 40.6639 76.2979L67.1716 76.2884C67.343 76.2884 67.524 76.3551 67.6478 76.4789C67.7717 76.6027 67.8479 76.7742 67.8383 76.9551C67.8383 80.4603 66.4668 83.7559 63.9808 86.2419C61.4948 88.7279 58.1992 90.0995 54.694 90.0995L53.1129 90.0995C45.874 90.0995 39.9686 84.194 39.9686 76.9551C39.9781 76.7742 40.0638 76.6122 40.1877 76.4884ZM66.4763 77.6314L41.3497 77.6314C41.6926 83.8226 46.8551 88.7565 53.1224 88.7565L54.7036 88.7564C57.8468 88.7564 60.7995 87.5182 63.0283 85.2894C65.1047 83.213 66.3144 80.5174 66.4763 77.6314Z" fill="#DE4D86"/>
<path d="M40.1784 55.1052C40.3023 54.9813 40.4737 54.9051 40.6547 54.9147L67.1719 54.9147C67.3433 54.9147 67.5243 54.9813 67.6481 55.1052C67.772 55.229 67.8482 55.4004 67.8386 55.5814L67.8482 76.9647C67.8482 77.3457 67.5529 77.641 67.1719 77.641C66.7909 77.641 66.4956 77.3457 66.4956 76.9647L66.4956 56.2577L41.3309 56.2577L41.3309 76.9647C41.3309 77.3457 41.0357 77.641 40.6547 77.641C40.2737 77.641 39.9784 77.3457 39.9784 76.9647L39.9879 55.5814C39.9784 55.4004 40.0546 55.229 40.1784 55.1052Z" fill="#DE4D86"/>
<path d="M46.8841 44.4182C47.0079 44.2944 47.1794 44.2182 47.3604 44.2277L60.4666 44.2277C60.6952 44.2277 60.9142 44.3516 61.0381 44.5516L67.7436 55.2385C67.9436 55.5528 67.8483 55.9719 67.534 56.1719C67.2197 56.3719 66.8006 56.2767 66.6006 55.9624L60.0951 45.5898L47.7318 45.5898L41.2264 55.9624C41.0263 56.2767 40.6072 56.3719 40.2929 56.1719C39.9786 55.9719 39.8833 55.5528 40.0834 55.2385L46.7889 44.5516C46.827 44.4944 46.846 44.4563 46.8841 44.4182Z" fill="#DE4D86"/>
<path d="M53.437 36.684C53.5132 36.6078 53.6084 36.5507 53.7227 36.5126L65.0764 33.1979C65.2859 33.1408 65.4955 33.1789 65.6669 33.3122C65.8384 33.4456 65.9336 33.6361 65.9336 33.8456L65.9336 39.3319C65.9336 39.4843 65.8765 39.6558 65.7717 39.7796L60.9616 45.3516C60.714 45.6374 60.2854 45.666 60.0091 45.4278C59.7234 45.1802 59.6948 44.7516 59.933 44.4754L64.5716 39.0938L64.5716 34.7505L54.5609 37.6746L54.5609 44.9135C54.5609 45.2945 54.2657 45.5898 53.8847 45.5898C53.5037 45.5898 53.2084 45.2945 53.2084 44.9135L53.2084 37.1603C53.2465 36.9698 53.3132 36.8078 53.437 36.684Z" fill="#DE4D86"/>
<path d="M42.0835 33.3695C42.1025 33.3505 42.1311 33.3219 42.1501 33.3028C42.3216 33.1695 42.5407 33.1409 42.7407 33.1885L54.0943 36.5032C54.4467 36.608 54.6563 36.989 54.5515 37.3414C54.4467 37.6938 54.0658 37.9034 53.7133 37.7986L43.2265 34.7411L43.2265 39.0844L47.8651 44.466C48.1127 44.7517 48.0746 45.1708 47.7889 45.4185C47.5031 45.6661 47.084 45.628 46.8364 45.3423L42.0263 39.7702C41.9216 39.6464 41.8644 39.494 41.8644 39.3226L41.8644 33.8362C41.8835 33.6648 41.9597 33.4933 42.0835 33.3695Z" fill="#DE4D86"/>
<path d="M53.4372 24.5685C53.561 24.4447 53.7324 24.3685 53.9134 24.378C54.2944 24.378 54.5897 24.6733 54.5897 25.0542L54.5897 33.7409C54.5897 34.1219 54.2944 34.4172 53.9134 34.4172C53.5324 34.4172 53.2371 34.1219 53.2371 33.7409L53.2467 25.0447C53.2371 24.8637 53.3133 24.6923 53.4372 24.5685Z" fill="#DE4D86"/>
<path d="M47.1791 18.844C47.3029 18.7202 47.4744 18.644 47.6553 18.6535C48.0363 18.6535 48.3316 18.9488 48.3316 19.3298L48.3316 30.7786C48.3316 31.1596 48.0363 31.4549 47.6553 31.4549C47.2743 31.4549 46.9791 31.1596 46.9791 30.7786L46.9791 19.3298C46.9886 19.1297 47.0648 18.9583 47.1791 18.844Z" fill="#DE4D86"/>
<path d="M59.6947 18.844C59.8185 18.7202 59.99 18.644 60.171 18.6535C60.552 18.6535 60.8472 18.9488 60.8472 19.3298L60.8472 30.7786C60.8472 31.1596 60.552 31.4549 60.171 31.4549C59.79 31.4549 59.4947 31.1596 59.4947 30.7786L59.4947 19.3298C59.4947 19.1393 59.5709 18.9678 59.6947 18.844Z" fill="#DE4D86"/>
<path d="M44.1313 72.3356C44.2551 72.2118 44.4266 72.1356 44.6076 72.1451L63.2191 72.1451C63.6001 72.1451 63.8954 72.4404 63.8954 72.8214C63.8954 73.2024 63.6001 73.4977 63.2191 73.4977L44.6076 73.4977C44.2266 73.4977 43.9313 73.2024 43.9313 72.8214C43.9313 72.6309 44.0075 72.4595 44.1313 72.3356Z" fill="#DE4D86"/>
<path d="M48.2746 68.0781C48.3985 67.9543 48.5699 67.8781 48.7509 67.8876L59.0758 67.8876C59.4568 67.8876 59.7521 68.1828 59.7521 68.5638C59.7521 68.9448 59.4568 69.2401 59.0758 69.2401L48.7509 69.2401C48.3699 69.2401 48.0746 68.9448 48.0746 68.5638C48.0746 68.3733 48.1508 68.2019 48.2746 68.0781Z" fill="#DE4D86"/>
<path d="M45.5504 79.4317C45.6742 79.3079 45.8456 79.2317 46.0266 79.2412C46.4076 79.2412 46.7029 79.5364 46.7029 79.9174C46.7029 82.8321 49.065 85.1942 51.9796 85.1942C52.3606 85.1942 52.6559 85.4895 52.6559 85.8705C52.6559 86.2515 52.3606 86.5467 51.9796 86.5467C48.3221 86.5467 45.3503 83.575 45.3599 79.927C45.3503 79.7269 45.4265 79.5555 45.5504 79.4317Z" fill="#DE4D86"/>
</g>
<defs>
<clipPath id="clip0_22_2163">
<rect width="60.6159" height="75.7698" fill="white" transform="translate(96.8706 54.3812) rotate(135)"/>
</clipPath>
</defs>
</svg>
