<svg width="42" height="42" viewBox="0 0 42 42" fill="none" xmlns="http://www.w3.org/2000/svg">
<path d="M22.7499 42C17.0449 42 11.9174 38.5 9.7999 33.25L4.4974 19.8975C3.9549 18.515 5.2499 17.1325 6.6674 17.5875L8.0499 18.0425C9.0299 18.375 9.8349 19.11 10.2199 20.0725L12.6874 26.25H13.9999V5.6875C13.9999 4.48 14.9799 3.5 16.1874 3.5C17.3949 3.5 18.3749 4.48 18.3749 5.6875V21H20.1249V2.1875C20.1249 0.98 21.1049 0 22.3124 0C23.5199 0 24.4999 0.98 24.4999 2.1875V21H26.2499V4.8125C26.2499 3.605 27.2299 2.625 28.4374 2.625C29.6449 2.625 30.6249 3.605 30.6249 4.8125V21H32.3749V10.0625C32.3749 8.855 33.3549 7.875 34.5624 7.875C35.7699 7.875 36.7499 8.855 36.7499 10.0625V28C36.7499 35.735 30.4849 42 22.7499 42Z" fill="white"/>
</svg>
