<svg width="46" height="46" viewBox="0 0 46 46" fill="none" xmlns="http://www.w3.org/2000/svg">
<path d="M35.2253 20.7769L30.8168 19.8066L34.0188 16.6046C34.0282 16.5953 34.0347 16.5845 34.0433 16.5748C34.0551 16.5617 34.0663 16.548 34.0767 16.5338C34.096 16.5079 34.1132 16.4805 34.1281 16.4519C34.1328 16.4429 34.1396 16.4357 34.1439 16.4264L35.2396 14.0875C35.2944 13.9705 35.3117 13.8395 35.2894 13.7122C35.267 13.585 35.206 13.4677 35.1146 13.3763L32.6245 10.8866C32.5331 10.7953 32.4158 10.7344 32.2885 10.7121C32.1613 10.6898 32.0303 10.7072 31.9133 10.7619L29.573 11.8573C29.563 11.8619 29.5547 11.8695 29.545 11.8745C29.5174 11.889 29.491 11.9056 29.4659 11.9241C29.4512 11.9349 29.4379 11.946 29.4246 11.9579C29.4113 11.9697 29.4041 11.973 29.3951 11.982L26.1927 15.1847L25.2224 10.7763C25.1982 10.6661 25.1447 10.5644 25.0677 10.482C24.9907 10.3996 24.8929 10.3394 24.7846 10.3077C24.6763 10.2761 24.5615 10.2742 24.4522 10.3021C24.3429 10.3301 24.2431 10.387 24.1633 10.4668L21.4091 13.2211C21.2923 13.3377 21.2262 13.4956 21.2251 13.6606L21.1726 20.2037L17.8484 23.528L17.341 21.2211C17.3168 21.1109 17.2634 21.0093 17.1864 20.9268C17.1094 20.8444 17.0116 20.7842 16.9033 20.7525C16.7951 20.7209 16.6803 20.719 16.571 20.747C16.4617 20.775 16.362 20.8319 16.2822 20.9117L14.4829 22.7104C14.3662 22.8271 14.2999 22.9849 14.2985 23.1499L14.2672 27.1095L12.2605 29.1162L10.3917 30.9832L8.376 32.9989L7.35142 34.0232C6.50531 34.8688 5.91982 35.9397 5.66452 37.1084L5.22464 39.1209C5.17483 39.3483 5.18302 39.5846 5.24846 39.8081C5.3139 40.0315 5.43448 40.2349 5.59911 40.3995C5.76375 40.5642 5.96714 40.6848 6.19058 40.7502C6.41402 40.8156 6.65033 40.8238 6.87777 40.774L8.89027 40.3338C10.0591 40.079 11.1299 39.4934 11.9751 38.6469L12.9997 37.6227L15.0776 35.5444L16.8835 33.741L16.886 33.7382L18.891 31.7329L22.8498 31.7012C23.0149 31.6998 23.1728 31.6338 23.2897 31.5172L25.0895 29.7168C25.1693 29.637 25.2262 29.5373 25.2542 29.428C25.2822 29.3188 25.2803 29.2039 25.2486 29.0957C25.217 28.9874 25.1568 28.8896 25.0743 28.8126C24.9919 28.7356 24.8902 28.6822 24.78 28.658L22.4732 28.1506L22.6723 27.9515L24.1968 26.427L25.796 24.8278L32.3395 24.775C32.5046 24.7737 32.6626 24.7075 32.7794 24.5906L35.5347 21.8357C35.6144 21.7559 35.6712 21.6562 35.6991 21.5469C35.7271 21.4377 35.7251 21.3229 35.6935 21.2147C35.6619 21.1064 35.6017 21.0087 35.5193 20.9317C35.437 20.8547 35.3354 20.8012 35.2253 20.7769ZM25.0873 23.7598L23.7544 25.0927L20.9078 22.2454L26.2804 16.8727L29.8382 13.3149L32.6834 16.1604L25.0873 23.7598ZM16.4389 32.4067L15.621 31.5891L13.5963 29.5644L15.3385 27.8221L17.9375 25.2231L17.9397 25.221L18.4935 24.6611L21.339 27.5066L16.4389 32.4067ZM14.936 33.9092L14.5716 34.2736L14.1954 33.8992L15.1732 32.9213L15.5477 33.2958L14.936 33.9092ZM12.5552 36.2904L11.1324 34.8677L9.70964 33.4449L10.837 32.3176L11.6549 33.1344L13.6804 35.1595L12.5552 36.2904ZM12.7043 30.4506L13.0788 30.8251L12.1006 31.8029L11.7261 31.4285L12.7043 30.4506ZM12.9918 32.692L13.9697 31.7142L14.2877 32.0322L13.3095 33.0101L12.9918 32.692ZM22.2299 26.6186L19.3847 23.7734L20.0172 23.1366L22.8635 25.9829L22.2299 26.6186ZM32.0473 12.0869L33.9132 13.9528L33.3849 15.0816L30.9185 12.6141L32.0473 12.0869ZM22.4815 13.9269L24.2424 12.166L25.1369 16.2391L22.4416 18.9344L22.4815 13.9269ZM15.5542 23.418L16.3599 22.6119L16.7936 24.5813L15.5358 25.8391L15.5542 23.418ZM8.62145 39.1069L6.60895 39.5471C6.58752 39.5518 6.56525 39.5511 6.54419 39.5449C6.52312 39.5388 6.50394 39.5275 6.4884 39.512C6.47287 39.4965 6.46148 39.4773 6.45529 39.4563C6.4491 39.4352 6.44831 39.4129 6.45298 39.3915L6.89322 37.379C7.09674 36.4453 7.56441 35.5898 8.24052 34.9144L8.82019 34.3347L10.2422 35.7579L11.665 37.1806L11.0853 37.7599C10.4102 38.4359 9.55492 38.9035 8.62145 39.1069ZM23.3882 29.6402L22.5825 30.4459L20.1588 30.4653L21.4166 29.2075L23.3882 29.6402ZM32.0732 23.5186L27.0653 23.5589L29.7606 20.8636L33.8334 21.7584L32.0732 23.5186Z" fill="#F8F8F8"/>
<path d="M28.7557 16.6153C28.673 16.6152 28.5912 16.6314 28.5148 16.6631C28.4385 16.6947 28.3691 16.7412 28.3108 16.7997L23.8006 21.3109C23.7376 21.3682 23.6868 21.4376 23.6514 21.515C23.616 21.5925 23.5967 21.6763 23.5947 21.7614C23.5926 21.8465 23.6079 21.9312 23.6395 22.0102C23.6711 22.0892 23.7185 22.1611 23.7787 22.2213C23.8389 22.2815 23.9107 22.3288 23.9897 22.3604C24.0688 22.3921 24.1534 22.4073 24.2385 22.4053C24.3237 22.4032 24.4075 22.3839 24.4849 22.3485C24.5623 22.3131 24.6318 22.2623 24.689 22.1993L29.2002 17.6888C29.2881 17.6008 29.348 17.4888 29.3722 17.3669C29.3965 17.2449 29.384 17.1185 29.3364 17.0036C29.2888 16.8887 29.2083 16.7905 29.1049 16.7214C29.0016 16.6523 28.88 16.6154 28.7557 16.6153Z" fill="#F8F8F8"/>
<path d="M36.5755 8.53522L34.577 10.5337C34.4624 10.6523 34.399 10.8111 34.4004 10.976C34.4018 11.1409 34.4679 11.2987 34.5845 11.4153C34.7011 11.5319 34.8588 11.5981 35.0237 11.5996C35.1886 11.6011 35.3475 11.5377 35.4661 11.4232L37.465 9.42467C37.5234 9.36627 37.5697 9.29693 37.6013 9.22063C37.6329 9.14432 37.6492 9.06254 37.6492 8.97995C37.6492 8.89735 37.6329 8.81557 37.6013 8.73926C37.5697 8.66296 37.5234 8.59362 37.465 8.53522C37.4066 8.47682 37.3372 8.43049 37.2609 8.39888C37.1846 8.36727 37.1028 8.35101 37.0202 8.35101C36.9376 8.35101 36.8559 8.36727 36.7795 8.39888C36.7032 8.43049 36.6339 8.47682 36.5755 8.53522Z" fill="#F8F8F8"/>
<path d="M37.7631 5.37559C37.6451 5.25781 37.4852 5.19166 37.3184 5.19166C37.1517 5.19166 36.9917 5.25781 36.8737 5.37559L33.4161 8.83386C33.3561 8.89188 33.3082 8.96129 33.2752 9.03803C33.2423 9.11476 33.225 9.19729 33.2243 9.28079C33.2235 9.3643 33.2395 9.44711 33.2711 9.5244C33.3027 9.60168 33.3495 9.67189 33.4085 9.73093C33.4676 9.78996 33.5378 9.83665 33.6151 9.86826C33.6924 9.89986 33.7752 9.91576 33.8587 9.91501C33.9422 9.91427 34.0248 9.8969 34.1015 9.86393C34.1782 9.83095 34.2476 9.78303 34.3056 9.72295L37.7631 6.26504C37.8216 6.20667 37.868 6.13734 37.8996 6.06103C37.9312 5.98472 37.9475 5.90293 37.9475 5.82032C37.9475 5.73771 37.9312 5.65591 37.8996 5.5796C37.868 5.50329 37.8216 5.43397 37.7631 5.37559Z" fill="#F8F8F8"/>
<path d="M40.178 8.05251C40.0954 8.0524 40.0136 8.06859 39.9373 8.10017C39.8609 8.13174 39.7915 8.17807 39.7331 8.23651L36.2752 11.6948C36.1607 11.8134 36.0973 11.9723 36.0988 12.1372C36.1003 12.3021 36.1664 12.4598 36.2831 12.5764C36.3997 12.693 36.5575 12.7591 36.7224 12.7605C36.8872 12.7619 37.0461 12.6985 37.1647 12.5839L40.6226 9.12596C40.7105 9.03801 40.7703 8.92598 40.7946 8.80402C40.8188 8.68207 40.8064 8.55566 40.7588 8.44078C40.7112 8.3259 40.6307 8.22771 40.5273 8.1586C40.4239 8.08949 40.3024 8.05257 40.178 8.05251Z" fill="#F8F8F8"/>
</svg>
