<svg width="84" height="105" viewBox="0 0 84 105" fill="none" xmlns="http://www.w3.org/2000/svg">
<path d="M57.12 24.612H44.268V17.808H39.732V24.612H26.88C24.6744 24.612 22.5592 25.4881 20.9997 27.0477C19.4401 28.6072 18.564 30.7224 18.564 32.928V57.876C18.564 60.0815 19.4401 62.1967 20.9997 63.7563C22.5592 65.3158 24.6744 66.192 26.88 66.192H57.12C59.3255 66.192 61.4407 65.3158 63.0003 63.7563C64.5598 62.1967 65.436 60.0815 65.436 57.876V32.928C65.436 30.7224 64.5598 28.6072 63.0003 27.0477C61.4407 25.4881 59.3255 24.612 57.12 24.612ZM60.9 57.876C60.9 58.8785 60.5017 59.84 59.7928 60.5488C59.0839 61.2577 58.1225 61.656 57.12 61.656H26.88C25.8774 61.656 24.916 61.2577 24.2071 60.5488C23.4982 59.84 23.1 58.8785 23.1 57.876V32.928C23.1 31.9255 23.4982 30.964 24.2071 30.2551C24.916 29.5462 25.8774 29.148 26.88 29.148H57.12C58.1225 29.148 59.0839 29.5462 59.7928 30.2551C60.5017 30.964 60.9 31.9255 60.9 32.928V57.876Z" fill="white"/>
<path d="M35.1782 41.9839C36.2115 40.9506 36.2115 39.2752 35.1782 38.2419C34.1449 37.2086 32.4695 37.2086 31.4362 38.2419C30.4029 39.2752 30.4029 40.9506 31.4362 41.9839C32.4695 43.0172 34.1449 43.0172 35.1782 41.9839Z" fill="white"/>
<path d="M52.5686 41.9814C53.6019 40.948 53.6019 39.2727 52.5686 38.2393C51.5353 37.206 49.8599 37.206 48.8266 38.2393C47.7932 39.2727 47.7932 40.948 48.8266 41.9814C49.8599 43.0147 51.5353 43.0147 52.5686 41.9814Z" fill="white"/>
<path d="M42.0001 50.3162C40.9403 50.312 39.8932 50.085 38.9269 49.65C37.9605 49.215 37.0963 48.5817 36.3905 47.7911L33.0037 50.8151C34.1321 52.0856 35.517 53.1025 37.067 53.7989C38.617 54.4953 40.297 54.8553 41.9963 54.8553C43.6955 54.8553 45.3755 54.4953 46.9255 53.7989C48.4756 53.1025 49.8604 52.0856 50.9889 50.8151L47.602 47.7911C46.8971 48.5807 46.0342 49.2135 45.0692 49.6485C44.1041 50.0835 43.0586 50.3109 42.0001 50.3162Z" fill="white"/>
</svg>
