<svg width="52" height="40" viewBox="0 0 52 40" fill="none" xmlns="http://www.w3.org/2000/svg">
<path d="M9.57757 8.71126C9.57757 11.8659 11.4784 14.7089 14.394 15.9161C17.3073 17.1231 20.6634 16.4575 22.8948 14.2262C25.1236 11.9949 25.7916 8.64106 24.5846 5.72542C23.3776 2.80978 20.5323 0.911377 17.3774 0.911377C13.0696 0.911377 9.57757 4.40344 9.57757 8.71126ZM22.7776 8.71126C22.7776 10.8933 21.4627 12.8644 19.4448 13.6988C17.4268 14.5355 15.1041 14.0738 13.5596 12.5292C12.0151 10.9847 11.5533 8.66206 12.3901 6.64408C13.2244 4.6261 15.1932 3.31126 17.3776 3.31126C20.3589 3.3136 22.7729 5.72998 22.7729 8.71126H22.7776Z" fill="white"/>
<path d="M30.3687 13.0353C30.3663 15.7682 32.0093 18.2315 34.5312 19.2765C37.0554 20.3242 39.9593 19.7453 41.8908 17.814C43.8222 15.8828 44.3986 12.9789 43.3533 10.4568C42.3079 7.93264 39.8423 6.28965 37.1121 6.29199C33.3902 6.29903 30.3741 9.31312 30.3693 13.0348L30.3687 13.0353ZM41.4615 13.0353C41.4638 14.7955 40.4068 16.3845 38.7802 17.0595C37.156 17.7345 35.2833 17.3642 34.0388 16.1197C32.7919 14.8775 32.4193 13.0049 33.0919 11.3783C33.7646 9.75177 35.3513 8.69236 37.1115 8.69236C39.5115 8.6947 41.4544 10.6377 41.4615 13.0353Z" fill="white"/>
<path d="M48.9809 27.942C43.527 23.8826 36.3761 22.8935 30.0269 25.3193C26.0191 22.7458 21.3245 21.4545 16.5641 21.6208C11.8063 21.7849 7.21012 23.3974 3.39232 26.2427C0.919662 28.0521 -0.081138 31.263 0.919662 34.1573C1.8595 37.1151 4.62046 39.1143 7.72366 39.0838H27.0269C27.369 39.0792 27.7136 39.051 28.0534 38.9995C28.3651 39.044 28.6839 39.0698 29.0003 39.0721H45.2309C47.9215 39.0956 50.3168 37.3635 51.1347 34.7995C51.9949 32.2893 51.1207 29.5101 48.9809 27.942ZM3.20032 33.4029C2.52298 31.4881 3.18626 29.3553 4.8316 28.1646C8.45974 25.467 12.8614 24.0115 17.3824 24.0115C21.9011 24.0115 26.3026 25.467 29.9308 28.1646C31.5761 29.3553 32.2418 31.4881 31.5621 33.4029C30.9504 35.3811 29.1035 36.717 27.0316 36.6842H7.7236C5.65408 36.7147 3.81208 35.3787 3.20032 33.4029ZM48.8615 34.0568C48.374 35.6318 46.9092 36.6982 45.2615 36.6841H32.3969C33.0391 35.9458 33.5266 35.088 33.8313 34.1576C34.6797 31.699 34.0891 28.9732 32.3008 27.0842C33.8618 26.6389 35.4766 26.4115 37.1008 26.4115C40.8602 26.3998 44.521 27.6139 47.5282 29.8686C48.8547 30.8131 49.3962 32.5194 48.8547 34.0569L48.8615 34.0568Z" fill="white"/>
</svg>
