<svg width="46" height="46" viewBox="0 0 46 46" fill="none" xmlns="http://www.w3.org/2000/svg">
<path d="M20.7769 10.7748L19.8066 15.1833L16.6046 11.9812C16.5953 11.9719 16.5845 11.9654 16.5748 11.9568C16.5617 11.945 16.548 11.9338 16.5338 11.9234C16.5079 11.9041 16.4805 11.8869 16.4519 11.872C16.4429 11.8673 16.4357 11.8605 16.4264 11.8562L14.0875 10.7604C13.9705 10.7057 13.8395 10.6883 13.7122 10.7107C13.585 10.7331 13.4677 10.7941 13.3763 10.8855L10.8866 13.3756C10.7953 13.467 10.7344 13.5843 10.7121 13.7115C10.6898 13.8388 10.7072 13.9698 10.7619 14.0868L11.8573 16.427C11.8619 16.4371 11.8695 16.4454 11.8745 16.4551C11.889 16.4826 11.9056 16.5091 11.9241 16.5341C11.9349 16.5489 11.946 16.5622 11.9579 16.5755C11.9697 16.5888 11.973 16.596 11.982 16.6049L15.1847 19.8073L10.7763 20.7776C10.6661 20.8019 10.5644 20.8553 10.482 20.9324C10.3996 21.0094 10.3394 21.1072 10.3077 21.2155C10.2761 21.3238 10.2742 21.4386 10.3021 21.5479C10.3301 21.6572 10.387 21.757 10.4668 21.8367L13.2211 24.591C13.3377 24.7078 13.4956 24.7739 13.6606 24.775L20.2037 24.8274L23.528 28.1517L21.2211 28.6591C21.1109 28.6833 21.0093 28.7367 20.9268 28.8137C20.8444 28.8907 20.7842 28.9884 20.7525 29.0967C20.7209 29.205 20.719 29.3198 20.747 29.4291C20.775 29.5384 20.8319 29.6381 20.9117 29.7178L22.7104 31.5172C22.8271 31.6339 22.9849 31.7001 23.1499 31.7016L27.1095 31.7328L29.1162 33.7396L30.9832 35.6083L32.9989 37.6241L34.0232 38.6486C34.8688 39.4947 35.9397 40.0802 37.1084 40.3355L39.1209 40.7754C39.3483 40.8252 39.5846 40.817 39.8081 40.7516C40.0315 40.6862 40.2349 40.5656 40.3995 40.4009C40.5642 40.2363 40.6848 40.0329 40.7502 39.8095C40.8156 39.586 40.8238 39.3497 40.774 39.1223L40.3338 37.1098C40.079 35.941 39.4934 34.8701 38.6469 34.0249L37.6227 33.0003L35.5444 30.9224L33.741 29.1166L33.7382 29.1141L31.7329 27.1091L31.7012 23.1502C31.6998 22.9852 31.6338 22.8273 31.5172 22.7104L29.7168 20.9106C29.637 20.8308 29.5373 20.7739 29.428 20.7459C29.3188 20.7179 29.2039 20.7198 29.0957 20.7514C28.9874 20.7831 28.8896 20.8433 28.8126 20.9257C28.7356 21.0082 28.6822 21.1098 28.658 21.22L28.1506 23.5269L27.9515 23.3278L26.427 21.8033L24.8278 20.2041L24.775 13.6606C24.7737 13.4954 24.7075 13.3374 24.5906 13.2207L21.8357 10.4654C21.7559 10.3857 21.6562 10.3289 21.5469 10.3009C21.4377 10.273 21.3229 10.2749 21.2147 10.3066C21.1064 10.3382 21.0087 10.3984 20.9317 10.4807C20.8547 10.5631 20.8012 10.6647 20.7769 10.7748ZM23.7598 20.9128L25.0927 22.2457L22.2454 25.0923L16.8727 19.7196L13.3149 16.1618L16.1604 13.3167L23.7598 20.9128ZM32.4067 29.5611L31.5891 30.3791L29.5644 32.4038L27.8221 30.6615L25.2231 28.0625L25.221 28.0604L24.6611 27.5066L27.5066 24.661L32.4067 29.5611ZM33.9092 31.064L34.2736 31.4284L33.8992 31.8047L32.9213 30.8268L33.2958 30.4524L33.9092 31.064ZM36.2904 33.4449L34.8677 34.8677L33.4449 36.2904L32.3176 35.1631L33.1344 34.3451L35.1595 32.3197L36.2904 33.4449ZM30.4506 33.2957L30.8251 32.9213L31.8029 33.8995L31.4285 34.274L30.4506 33.2957ZM32.692 33.0082L31.7142 32.0304L32.0322 31.7123L33.0101 32.6906L32.692 33.0082ZM26.6186 23.7702L23.7734 26.6153L23.1366 25.9828L25.9829 23.1366L26.6186 23.7702ZM12.0869 13.9528L13.9528 12.0869L15.0816 12.6152L12.6141 15.0815L12.0869 13.9528ZM13.9269 23.5186L12.166 21.7577L16.2391 20.8632L18.9344 23.5585L13.9269 23.5186ZM23.418 30.4459L22.6119 29.6402L24.5813 29.2064L25.8391 30.4642L23.418 30.4459ZM39.1069 37.3786L39.5471 39.3911C39.5518 39.4125 39.5511 39.4348 39.5449 39.4559C39.5388 39.4769 39.5275 39.4961 39.512 39.5117C39.4965 39.5272 39.4773 39.5386 39.4563 39.5448C39.4352 39.551 39.4129 39.5518 39.3915 39.5471L37.379 39.1068C36.4453 38.9033 35.5898 38.4356 34.9144 37.7595L34.3347 37.1799L35.7579 35.7578L37.1806 34.3351L37.7599 34.9147C38.4359 35.5899 38.9035 36.4451 39.1069 37.3786ZM29.6402 22.6119L30.4459 23.4176L30.4653 25.8412L29.2075 24.5834L29.6402 22.6119ZM23.5186 13.9269L23.5589 18.9348L20.8636 16.2395L21.7584 12.1667L23.5186 13.9269Z" fill="#F8F8F8"/>
<path d="M16.6154 17.2443C16.6153 17.3269 16.6315 17.4088 16.6631 17.4851C16.6948 17.5615 16.7412 17.6308 16.7998 17.6892L21.311 22.1993C21.3682 22.2624 21.4377 22.3131 21.5151 22.3485C21.5925 22.3839 21.6763 22.4032 21.7615 22.4053C21.8466 22.4073 21.9312 22.3921 22.0103 22.3604C22.0893 22.3288 22.1611 22.2815 22.2213 22.2213C22.2815 22.1611 22.3289 22.0893 22.3605 22.0102C22.3921 21.9312 22.4074 21.8465 22.4053 21.7614C22.4033 21.6763 22.384 21.5925 22.3486 21.515C22.3132 21.4376 22.2624 21.3682 22.1994 21.3109L17.6889 16.7997C17.6009 16.7118 17.4889 16.652 17.3669 16.6277C17.245 16.6035 17.1186 16.6159 17.0037 16.6635C16.8888 16.7111 16.7906 16.7917 16.7215 16.895C16.6524 16.9984 16.6155 17.1199 16.6154 17.2443Z" fill="#F8F8F8"/>
<path d="M8.53522 9.42462L10.5337 11.4231C10.6523 11.5377 10.8111 11.6011 10.976 11.5997C11.1409 11.5983 11.2987 11.5322 11.4153 11.4156C11.5319 11.299 11.5981 11.1413 11.5996 10.9764C11.6011 10.8115 11.5377 10.6526 11.4232 10.534L9.42467 8.53516C9.36627 8.47676 9.29693 8.43043 9.22063 8.39883C9.14432 8.36722 9.06254 8.35095 8.97995 8.35095C8.89735 8.35095 8.81557 8.36722 8.73926 8.39883C8.66296 8.43043 8.59362 8.47676 8.53522 8.53516C8.47682 8.59357 8.43049 8.6629 8.39888 8.73921C8.36727 8.81551 8.35101 8.8973 8.35101 8.97989C8.35101 9.06248 8.36727 9.14427 8.39888 9.22057C8.43049 9.29688 8.47682 9.36621 8.53522 9.42462Z" fill="#F8F8F8"/>
<path d="M5.37559 8.2368C5.25781 8.35484 5.19166 8.51478 5.19166 8.68153C5.19166 8.84828 5.25781 9.00822 5.37559 9.12626L8.83386 12.5838C8.89188 12.6439 8.96129 12.6918 9.03803 12.7247C9.11476 12.7576 9.19729 12.775 9.28079 12.7757C9.3643 12.7764 9.44711 12.7605 9.5244 12.7288C9.60168 12.6972 9.67189 12.6505 9.73093 12.5914C9.78996 12.5324 9.83665 12.4621 9.86826 12.3848C9.89986 12.3075 9.91576 12.2247 9.91501 12.1412C9.91427 12.0577 9.8969 11.9752 9.86393 11.8985C9.83095 11.8217 9.78303 11.7524 9.72295 11.6943L6.26504 8.2368C6.20667 8.17835 6.13734 8.13199 6.06103 8.10035C5.98472 8.06871 5.90293 8.05243 5.82032 8.05243C5.73771 8.05243 5.65591 8.06871 5.5796 8.10035C5.50329 8.13199 5.43397 8.17835 5.37559 8.2368Z" fill="#F8F8F8"/>
<path d="M8.05251 5.82195C8.0524 5.90457 8.06859 5.9864 8.10017 6.06274C8.13174 6.13909 8.17807 6.20845 8.23651 6.26686L11.6948 9.72476C11.8134 9.8393 11.9723 9.90266 12.1372 9.90119C12.3021 9.89973 12.4598 9.83355 12.5764 9.71693C12.693 9.6003 12.7591 9.44255 12.7605 9.27765C12.7619 9.11275 12.6985 8.9539 12.5839 8.83531L9.12596 5.37741C9.03801 5.28951 8.92598 5.22967 8.80402 5.20543C8.68207 5.18119 8.55566 5.19364 8.44078 5.24121C8.3259 5.28879 8.22771 5.36935 8.1586 5.47271C8.08949 5.57608 8.05257 5.69761 8.05251 5.82195Z" fill="#F8F8F8"/>
</svg>
