<svg width="95" height="95" viewBox="0 0 95 95" fill="none" xmlns="http://www.w3.org/2000/svg">
<path d="M38 68.875V26.125L66.5 47.5M47.5 0C41.2622 0 35.0855 1.22862 29.3225 3.61572C23.5596 6.00282 18.3232 9.50165 13.9124 13.9124C5.00445 22.8204 0 34.9022 0 47.5C0 60.0978 5.00445 72.1796 13.9124 81.0876C18.3232 85.4984 23.5596 88.9972 29.3225 91.3843C35.0855 93.7714 41.2622 95 47.5 95C60.0978 95 72.1796 89.9956 81.0876 81.0876C89.9956 72.1796 95 60.0978 95 47.5C95 41.2622 93.7714 35.0855 91.3843 29.3225C88.9972 23.5596 85.4984 18.3232 81.0876 13.9124C76.6768 9.50165 71.4404 6.00282 65.6775 3.61572C59.9145 1.22862 53.7378 0 47.5 0Z" fill="white"/>
</svg>
